<mxfile host="app.diagrams.net" agent="Mozilla/5.0 (Windows NT 10.0; Win64; x64) AppleWebKit/537.36 (KHTML, like Gecko) Chrome/132.0.0.0 Safari/537.36 Edg/132.0.0.0" version="26.0.11">
  <diagram name="Page-1" id="eACKEmgRbB43WLNYdqzP">
    <mxGraphModel dx="928" dy="1494" grid="1" gridSize="10" guides="1" tooltips="1" connect="1" arrows="1" fold="1" page="1" pageScale="1" pageWidth="827" pageHeight="1169" math="0" shadow="0">
      <root>
        <mxCell id="0" />
        <mxCell id="1" parent="0" />
        <mxCell id="L_D8-ZDLaAEp5K7gtA02-20" value="&lt;font style=&quot;font-size: 18px; color: light-dark(rgb(177, 49, 24), rgb(237, 237, 237));&quot;&gt;Back End&lt;/font&gt;" style="rounded=0;whiteSpace=wrap;html=1;align=right;verticalAlign=top;spacing=10;fillColor=#fff2cc;strokeColor=#d6b656;" vertex="1" parent="1">
          <mxGeometry x="420" y="90" width="340" height="300" as="geometry" />
        </mxCell>
        <mxCell id="L_D8-ZDLaAEp5K7gtA02-9" value="&lt;font color=&quot;#b13118&quot;&gt;&lt;span style=&quot;font-size: 18px;&quot;&gt;Global&lt;/span&gt;&lt;/font&gt;&lt;div&gt;&lt;font color=&quot;#b13118&quot;&gt;&lt;span style=&quot;font-size: 18px;&quot;&gt;Optimizations&lt;/span&gt;&lt;/font&gt;&lt;/div&gt;" style="rounded=0;whiteSpace=wrap;html=1;align=left;verticalAlign=top;spacing=10;fillColor=#fff2cc;strokeColor=#d6b656;" vertex="1" parent="1">
          <mxGeometry x="60" y="300" width="330" height="230" as="geometry" />
        </mxCell>
        <mxCell id="L_D8-ZDLaAEp5K7gtA02-8" value="&lt;font style=&quot;font-size: 18px; color: light-dark(rgb(177, 49, 24), rgb(237, 237, 237));&quot;&gt;ByteCode&lt;/font&gt;&lt;div&gt;&lt;font style=&quot;font-size: 18px; color: light-dark(rgb(177, 49, 24), rgb(237, 237, 237));&quot;&gt;Parsing&lt;/font&gt;&lt;/div&gt;" style="rounded=0;whiteSpace=wrap;html=1;align=left;verticalAlign=top;spacing=10;fillColor=#fff2cc;strokeColor=#d6b656;" vertex="1" parent="1">
          <mxGeometry x="60" y="70" width="330" height="230" as="geometry" />
        </mxCell>
        <mxCell id="L_D8-ZDLaAEp5K7gtA02-21" style="edgeStyle=orthogonalEdgeStyle;rounded=0;orthogonalLoop=1;jettySize=auto;html=1;exitX=0.5;exitY=1;exitDx=0;exitDy=0;entryX=0.5;entryY=0;entryDx=0;entryDy=0;" edge="1" parent="1" source="L_D8-ZDLaAEp5K7gtA02-3" target="L_D8-ZDLaAEp5K7gtA02-4">
          <mxGeometry relative="1" as="geometry" />
        </mxCell>
        <mxCell id="L_D8-ZDLaAEp5K7gtA02-3" value="&lt;font style=&quot;font-size: 16px;&quot;&gt;ByteCodes&lt;/font&gt;" style="shape=parallelogram;perimeter=parallelogramPerimeter;whiteSpace=wrap;html=1;fixedSize=1;fillColor=#dae8fc;strokeColor=#6c8ebf;" vertex="1" parent="1">
          <mxGeometry x="180" y="50" width="176" height="40" as="geometry" />
        </mxCell>
        <mxCell id="L_D8-ZDLaAEp5K7gtA02-4" value="&lt;font style=&quot;font-size: 16px;&quot;&gt;Method Inlining&lt;/font&gt;" style="rounded=0;whiteSpace=wrap;html=1;fillColor=#dae8fc;strokeColor=#6c8ebf;" vertex="1" parent="1">
          <mxGeometry x="167" y="140" width="202" height="40" as="geometry" />
        </mxCell>
        <mxCell id="L_D8-ZDLaAEp5K7gtA02-5" value="&lt;font style=&quot;font-size: 16px;&quot;&gt;Constant Propagation&lt;/font&gt;" style="rounded=0;whiteSpace=wrap;html=1;fillColor=#dae8fc;strokeColor=#6c8ebf;" vertex="1" parent="1">
          <mxGeometry x="167" y="180" width="202" height="40" as="geometry" />
        </mxCell>
        <mxCell id="L_D8-ZDLaAEp5K7gtA02-22" style="edgeStyle=orthogonalEdgeStyle;rounded=0;orthogonalLoop=1;jettySize=auto;html=1;exitX=0.5;exitY=1;exitDx=0;exitDy=0;entryX=0.5;entryY=0;entryDx=0;entryDy=0;" edge="1" parent="1" source="L_D8-ZDLaAEp5K7gtA02-6" target="L_D8-ZDLaAEp5K7gtA02-7">
          <mxGeometry relative="1" as="geometry" />
        </mxCell>
        <mxCell id="L_D8-ZDLaAEp5K7gtA02-6" value="&lt;font style=&quot;font-size: 16px;&quot;&gt;Local Value Numbering&lt;/font&gt;" style="rounded=0;whiteSpace=wrap;html=1;fillColor=#dae8fc;strokeColor=#6c8ebf;" vertex="1" parent="1">
          <mxGeometry x="167" y="220" width="202" height="40" as="geometry" />
        </mxCell>
        <mxCell id="L_D8-ZDLaAEp5K7gtA02-23" style="edgeStyle=orthogonalEdgeStyle;rounded=0;orthogonalLoop=1;jettySize=auto;html=1;exitX=0.5;exitY=1;exitDx=0;exitDy=0;entryX=0.5;entryY=0;entryDx=0;entryDy=0;" edge="1" parent="1" source="L_D8-ZDLaAEp5K7gtA02-7" target="L_D8-ZDLaAEp5K7gtA02-10">
          <mxGeometry relative="1" as="geometry" />
        </mxCell>
        <mxCell id="L_D8-ZDLaAEp5K7gtA02-7" value="&lt;font style=&quot;font-size: 16px;&quot;&gt;HIR（SSA Form）&lt;/font&gt;" style="shape=parallelogram;perimeter=parallelogramPerimeter;whiteSpace=wrap;html=1;fixedSize=1;fillColor=#ffe6cc;strokeColor=#d79b00;" vertex="1" parent="1">
          <mxGeometry x="180" y="280" width="176" height="40" as="geometry" />
        </mxCell>
        <mxCell id="L_D8-ZDLaAEp5K7gtA02-10" value="&lt;font style=&quot;font-size: 16px;&quot;&gt;Null Check Elimination&lt;/font&gt;" style="rounded=0;whiteSpace=wrap;html=1;fillColor=#dae8fc;strokeColor=#6c8ebf;" vertex="1" parent="1">
          <mxGeometry x="167" y="365" width="202" height="40" as="geometry" />
        </mxCell>
        <mxCell id="L_D8-ZDLaAEp5K7gtA02-11" value="&lt;font style=&quot;font-size: 16px;&quot;&gt;Conditional Expr. Elim&lt;/font&gt;" style="rounded=0;whiteSpace=wrap;html=1;fillColor=#dae8fc;strokeColor=#6c8ebf;" vertex="1" parent="1">
          <mxGeometry x="167" y="405" width="202" height="40" as="geometry" />
        </mxCell>
        <mxCell id="L_D8-ZDLaAEp5K7gtA02-24" style="edgeStyle=orthogonalEdgeStyle;rounded=0;orthogonalLoop=1;jettySize=auto;html=1;exitX=0.5;exitY=1;exitDx=0;exitDy=0;entryX=0.5;entryY=0;entryDx=0;entryDy=0;" edge="1" parent="1" source="L_D8-ZDLaAEp5K7gtA02-12" target="L_D8-ZDLaAEp5K7gtA02-13">
          <mxGeometry relative="1" as="geometry" />
        </mxCell>
        <mxCell id="L_D8-ZDLaAEp5K7gtA02-12" value="&lt;font style=&quot;font-size: 16px;&quot;&gt;Global Value Numbering&lt;/font&gt;" style="rounded=0;whiteSpace=wrap;html=1;fillColor=#dae8fc;strokeColor=#6c8ebf;" vertex="1" parent="1">
          <mxGeometry x="167" y="445" width="202" height="40" as="geometry" />
        </mxCell>
        <mxCell id="L_D8-ZDLaAEp5K7gtA02-27" style="edgeStyle=orthogonalEdgeStyle;rounded=0;orthogonalLoop=1;jettySize=auto;html=1;exitX=0.5;exitY=1;exitDx=0;exitDy=0;entryX=0.5;entryY=0;entryDx=0;entryDy=0;" edge="1" parent="1" source="L_D8-ZDLaAEp5K7gtA02-13" target="L_D8-ZDLaAEp5K7gtA02-14">
          <mxGeometry relative="1" as="geometry">
            <Array as="points">
              <mxPoint x="266" y="570" />
              <mxPoint x="407" y="570" />
              <mxPoint x="407" y="70" />
              <mxPoint x="561" y="70" />
            </Array>
          </mxGeometry>
        </mxCell>
        <mxCell id="L_D8-ZDLaAEp5K7gtA02-13" value="&lt;font style=&quot;font-size: 16px;&quot;&gt;Optimized HIR&lt;/font&gt;" style="shape=parallelogram;perimeter=parallelogramPerimeter;whiteSpace=wrap;html=1;fixedSize=1;fillColor=#dae8fc;strokeColor=#6c8ebf;" vertex="1" parent="1">
          <mxGeometry x="178" y="510" width="176" height="40" as="geometry" />
        </mxCell>
        <mxCell id="L_D8-ZDLaAEp5K7gtA02-28" style="edgeStyle=orthogonalEdgeStyle;rounded=0;orthogonalLoop=1;jettySize=auto;html=1;exitX=0.5;exitY=1;exitDx=0;exitDy=0;entryX=0.5;entryY=0;entryDx=0;entryDy=0;" edge="1" parent="1" source="L_D8-ZDLaAEp5K7gtA02-14" target="L_D8-ZDLaAEp5K7gtA02-16">
          <mxGeometry relative="1" as="geometry" />
        </mxCell>
        <mxCell id="L_D8-ZDLaAEp5K7gtA02-14" value="&lt;font style=&quot;font-size: 16px;&quot;&gt;LIR Generation&lt;/font&gt;" style="rounded=0;whiteSpace=wrap;html=1;fillColor=#dae8fc;strokeColor=#6c8ebf;" vertex="1" parent="1">
          <mxGeometry x="460" y="110" width="202" height="40" as="geometry" />
        </mxCell>
        <mxCell id="L_D8-ZDLaAEp5K7gtA02-29" style="edgeStyle=orthogonalEdgeStyle;rounded=0;orthogonalLoop=1;jettySize=auto;html=1;exitX=0.5;exitY=1;exitDx=0;exitDy=0;entryX=0.5;entryY=0;entryDx=0;entryDy=0;" edge="1" parent="1" source="L_D8-ZDLaAEp5K7gtA02-16" target="L_D8-ZDLaAEp5K7gtA02-17">
          <mxGeometry relative="1" as="geometry" />
        </mxCell>
        <mxCell id="L_D8-ZDLaAEp5K7gtA02-16" value="&lt;font style=&quot;font-size: 16px;&quot;&gt;LIR&lt;/font&gt;" style="shape=parallelogram;perimeter=parallelogramPerimeter;whiteSpace=wrap;html=1;fixedSize=1;fillColor=#dae8fc;strokeColor=#6c8ebf;" vertex="1" parent="1">
          <mxGeometry x="473" y="180" width="176" height="40" as="geometry" />
        </mxCell>
        <mxCell id="L_D8-ZDLaAEp5K7gtA02-17" value="&lt;font style=&quot;font-size: 16px;&quot;&gt;Register Allocation&lt;/font&gt;" style="rounded=0;whiteSpace=wrap;html=1;fillColor=#dae8fc;strokeColor=#6c8ebf;" vertex="1" parent="1">
          <mxGeometry x="460" y="250" width="202" height="40" as="geometry" />
        </mxCell>
        <mxCell id="L_D8-ZDLaAEp5K7gtA02-30" style="edgeStyle=orthogonalEdgeStyle;rounded=0;orthogonalLoop=1;jettySize=auto;html=1;exitX=0.5;exitY=1;exitDx=0;exitDy=0;entryX=0.5;entryY=0;entryDx=0;entryDy=0;" edge="1" parent="1" source="L_D8-ZDLaAEp5K7gtA02-18" target="L_D8-ZDLaAEp5K7gtA02-19">
          <mxGeometry relative="1" as="geometry" />
        </mxCell>
        <mxCell id="L_D8-ZDLaAEp5K7gtA02-18" value="&lt;font style=&quot;font-size: 16px;&quot;&gt;Code&amp;nbsp;&lt;/font&gt;&lt;span style=&quot;font-size: 16px;&quot;&gt;Generation&lt;/span&gt;" style="rounded=0;whiteSpace=wrap;html=1;fillColor=#dae8fc;strokeColor=#6c8ebf;" vertex="1" parent="1">
          <mxGeometry x="460" y="290" width="202" height="40" as="geometry" />
        </mxCell>
        <mxCell id="L_D8-ZDLaAEp5K7gtA02-19" value="&lt;font style=&quot;font-size: 16px;&quot;&gt;Matchine Code&lt;/font&gt;" style="shape=parallelogram;perimeter=parallelogramPerimeter;whiteSpace=wrap;html=1;fixedSize=1;fillColor=#dae8fc;strokeColor=#6c8ebf;" vertex="1" parent="1">
          <mxGeometry x="473" y="370" width="176" height="40" as="geometry" />
        </mxCell>
      </root>
    </mxGraphModel>
  </diagram>
</mxfile>
